<svg width="28" height="12" viewBox="0 0 28 12" fill="none" xmlns="http://www.w3.org/2000/svg">
<path opacity="0.2" d="M0 2C0 1.17595 0.940764 0.705573 1.6 1.2L6.93333 5.2C7.46667 5.6 7.46667 6.4 6.93333 6.8L1.6 10.8C0.940764 11.2944 0 10.824 0 10V2Z" fill="#F5B542"/>
<path opacity="0.5" d="M10 2C10 1.17595 10.9408 0.705573 11.6 1.2L16.9333 5.2C17.4667 5.6 17.4667 6.4 16.9333 6.8L11.6 10.8C10.9408 11.2944 10 10.824 10 10V2Z" fill="#F5B542"/>
<path d="M20 2C20 1.17595 20.9408 0.705573 21.6 1.2L26.9333 5.2C27.4667 5.6 27.4667 6.4 26.9333 6.8L21.6 10.8C20.9408 11.2944 20 10.824 20 10V2Z" fill="#F5B542"/>
</svg>
